<svg width="43" height="43" viewBox="0 0 43 43" fill="none" xmlns="http://www.w3.org/2000/svg">
<rect width="43" height="43" rx="6.93135" fill="white" fill-opacity="0.08"/>
<path d="M25.384 5.35311C26.038 4.50313 27.3964 4.92535 27.4533 5.99624L28.0645 17.5033C28.0823 17.84 28.2464 18.1521 28.5137 18.3576L37.6469 25.384C38.4968 26.038 38.0746 27.3964 37.0037 27.4533L25.4967 28.0645C25.16 28.0823 24.8479 28.2464 24.6423 28.5136L17.6159 37.6469C16.962 38.4968 15.6036 38.0746 15.5467 37.0037L14.9355 25.4967C14.9176 25.16 14.7536 24.8479 14.4863 24.6423L5.35312 17.6159C4.50314 16.962 4.92535 15.6036 5.99625 15.5467L17.5033 14.9355C17.84 14.9176 18.1521 14.7536 18.3577 14.4863L25.384 5.35311Z" fill="white"/>
</svg>
